# xmcd
#
# Track frame offsets:
#	150
#	19192
#	34085
#	46577
#	61025
#	76220
#	85497
#	98360
#	114295
#	131357
#	144762
#	160817
#
# Disc length: 2411
#
# Revision: 2
# Processed by: cddbd v1.5.1PL0 Copyright (c) Steve Scherf et al.
# Submitted via: EasyCDDAExtractor 5.0.4.1
# Normalized: r1:DSETVAR1
#
DISCID=7d09690c
DTITLE=Various Artist - Great Jazz
DYEAR=1998
DGENRE=Jazz
TTITLE0=Billie Holiday - Do Nothin' Till You Hear From Me
TTITLE1=Peggy Lee - The Best is Yet to Come
TTITLE2=Lou Rawls - Nobody but Me
TTITLE3=Dinah Washington - Since I Fell for You
TTITLE4=Carmen McRae - Bye Bye Blackbird
TTITLE5=Bobby Darin - Call Me Irresponsible
TTITLE6=Nancy Wilson - The Very Thought of You
TTITLE7=Oscar Peterson - Sweet Lorraine
TTITLE8=Ella Fitzgerald and Louis Armstrong - Can't We be Friends
TTITLE9=Etta James - Fool that I Am
TTITLE10=Billie Holiday - A Fine Romance
TTITLE11=Lou Rawls - God Bless this Child
EXTD=YEAR: 1998
EXTT0=
EXTT1=
EXTT2=
EXTT3=
EXTT4=
EXTT5=
EXTT6=
EXTT7=
EXTT8=
EXTT9=
EXTT10=
EXTT11=
PLAYORDER=
